# AST/ASF file generated using VICON BodyLanguage
# -----------------------------------------------
:version 1.10
:name VICON
:units
  mass 1.0
  length 0.45
  angle deg
:documentation
   .ast/.asf automatically generated from VICON data using
   VICON BodyBuilder and BodyLanguage model FoxedUp or BRILLIANT.MOD
:root
   order TX TY TZ RX RY RZ
   axis XYZ
   position 0 0 0  
   orientation 0 0 0 
:bonedata
  begin
     id 1 
     name lhipjoint
     direction 0.627457 -0.725269 0.283342 
     length 2.53237 
     axis 0 0 0  XYZ
  end
  begin
     id 2 
     name lfemur
     direction 0.34202 -0.939693 0  
     length 7.32496  
     axis 0 0 20  XYZ
    dof rx ry rz
    limits (-160.0 20.0)
           (-70.0 70.0)
           (-60.0 70.0)
  end
  begin
     id 3 
     name ltibia
     direction 0.34202 -0.939693 0   
     length 7.69674   
     axis 0 0 20   XYZ
    dof rx
    limits (-10.0 170.0)
  end
  begin
     id 4 
     name lfoot
     direction 0.127289 -0.349722 0.928166   
     length 1.8612   
     axis -90 7.62852e-016 20   XYZ
    dof rx rz
    limits (-45.0 90.0)
           (-70.0 20.0)
  end
  begin
     id 5 
     name ltoes
     direction 1.53561e-011 -4.21864e-011 1   
     length 0.925608   
     axis -90 7.62852e-016 20   XYZ
    dof rx
    limits (-90.0 20.0)
  end
  begin
     id 6 
     name rhipjoint
     direction -0.609094 -0.738725 0.288599   
     length 2.48624  
     axis 0 0 0  XYZ 
  end
  begin
     id 7 
     name rfemur
     direction -0.34202 -0.939693 0   
     length 7.44259   
     axis 0 0 -20   XYZ
    dof rx ry rz
    limits (-160.0 20.0)
           (-70.0 70.0)
           (-70.0 60.0)
  end
  begin
     id 8 
     name rtibia
     direction -0.34202 -0.939693 0   
     length 7.7781   
     axis 0 0 -20   XYZ
    dof rx
    limits (-10.0 170.0)
 end
 begin
     id 9 
     name rfoot
     direction -0.107015 -0.294021 0.949789   
     length 2.14741  
     axis -90 -7.62852e-016 -20   XYZ
    dof rx rz
    limits (-45.0 90.0)
           (-20.0 70.0)
  end
  begin
     id 10 
     name rtoes
     direction -1.53497e-011 -4.21924e-011 1   
     length 1.0706   
     axis -90 -7.62852e-016 -20   XYZ
    dof rx
    limits (-90.0 20.0)
  end
  begin
     id 11 
     name lowerback
     direction -0.0142066 0.998112 -0.0597545   
     length 1.86627   
     axis 0 0 0   XYZ
    dof rx ry rz
    limits (-20.0 45.0)
           (-30.0 30.0)
           (-30.0 30.0)
  end
  begin
     id 12 
     name upperback
     direction 0.00547294 0.999744 0.0219437   
     length 1.86272   
     axis 0 0 0   XYZ
    dof rx ry rz
    limits (-20.0 45.0)
           (-30.0 30.0)
           (-30.0 30.0)
  end
  begin
     id 13 
     name thorax
     direction 0.0116162 0.998704 0.0495538   
     length 1.8703   
     axis 0 0 0   XYZ
    dof rx ry rz
    limits (-20.0 45.0)
           (-30.0 30.0)
           (-30.0 30.0)
  end
  begin
     id 14 
     name lowerneck
     direction -0.0106574 0.998739 0.0490586   
     length 1.8074   
     axis 0 0 0   XYZ
    dof rx ry rz
    limits (-20.0 45.0)
           (-30.0 30.0)
           (-30.0 30.0)
  end
  begin
     id 15 
     name upperneck
     direction 0.030527 0.976587 -0.212944   
     length 1.80681   
     axis 0 0 0   XYZ
    dof rx ry rz
    limits (-20.0 45.0)
           (-30.0 30.0)
           (-30.0 30.0)
  end
  begin
     id 16
     name head
     direction 0.00869225 0.997035 -0.0764531  
     length 1.8313  
     axis 0 0 0   XYZ
    dof rx ry rz
    limits (-20.0 45.0)
           (-30.0 30.0)
           (-30.0 30.0)
  end
  begin
     id 17 
     name lclavicle
     direction 0.915958 0.399447 0.0382386  
     length 3.78965  
     axis 0 0 0   XYZ
    dof ry rz
    limits (-20.0 10.0)
           (0.0 20.0)
  end
  begin
     id 18 
     name lhumerus
     direction 1 -4.48967e-011 3.19303e-027   
     length 4.78095   
     axis -180 -30 -90   XYZ
    dof rx ry rz
    limits (-60.0 90.0)
           (-90.0 90.0)
           (-90.0 90.0)
  end
  begin
     id 19
     name lradius
     direction 1 -4.48967e-011 -3.77974e-027   
     length 3.58615   
     axis -180 -30 -90   XYZ
    dof rx
    limits (-10.0 170.0)
  end
  begin
     id 20
     name lwrist
     direction 1 -4.48927e-011 1.2807e-027   
     length 1.79307   
     axis 1.91374e-015 90 90   XYZ
    dof ry
    limits (-180.0 0.0)
 end
  begin
     id 21 
     name lhand
     direction 1 -4.49036e-011 2.5614e-027   
     length 0.659812   
     axis -1.63439e-015 90 90   XYZ
    dof rx rz
    limits (-90.0 90.0)
           (-45.0 45.0)
  end
  begin
     id 22 
     name lfingers
     direction 1 -4.49052e-011 5.1228e-027   
     length 0.531957   
     axis -3.26879e-015 90 90   XYZ
    dof rx
    limits (0.0 90.0)
  end
  begin
     id 23
     name lthumb
     direction 0.707107 -6.35012e-011 0.707107   
     length 0.763787   
     axis -90 45 2.85299e-015   XYZ
    dof rx rz
    limits (-45.0 45.0)
           (-45.0 45.0)
  end
  begin
     id 24 
     name rclavicle
     direction -0.895351 0.435135 0.0948887   
     length 3.70497  
     axis 0 0 0   XYZ 
    dof ry rz
    limits (-10.0 20.0)
           (-20.0 0.0)
  end
  begin
     id 25 
     name rhumerus
     direction -1 -4.48971e-011 2.38946e-027  
     length 4.48913   
     axis -180 30 90   XYZ
    dof rx ry rz
    limits (-90.0 60.0)
           (-90.0 90.0)
           (-90.0 90.0)
  end
  begin
     id 26 
     name rradius
     direction -1 -4.4895e-011 4.38668e-027   
     length 3.7051   
     axis -180 30 90   XYZ
    dof rx
    limits (-10.0 170.0)
  end
  begin
     id 27 
     name rwrist
     direction -1 -4.49007e-011 1.2807e-027   
     length 1.85255   
     axis 1.91374e-015 -90 -90   XYZ
    dof ry
    limits (-180.0 0.0)
  end
  begin
     id 28
     name rhand
     direction -1 -4.48851e-011 2.5614e-027   
     length 0.449136   
     axis -1.63439e-015 -90 -90   XYZ
    dof rx rz
    limits (-90.0 90.0)
           (-45.0 45.0)
  end
  begin
     id 29
     name rfingers
     direction -1 -4.49128e-011 5.1228e-027   
     length 0.362105   
     axis -3.26879e-015 -90 -90   XYZ
    dof rx
    limits (0.0 90.0)
  end
  begin
     id 30
     name rthumb
     direction -0.707107 -6.34851e-011 0.707107   
     length 0.519912   
     axis -90 -45 -2.85299e-015   XYZ
    dof rx rz
    limits (-45.0 45.0)
           (-45.0 45.0)
  end
:hierarchy
  begin
    root lhipjoint rhipjoint lowerback
    lhipjoint lfemur
    lfemur ltibia
    ltibia lfoot
    lfoot ltoes
    rhipjoint rfemur
    rfemur rtibia
    rtibia rfoot
    rfoot rtoes
    lowerback upperback
    upperback thorax
    thorax lowerneck lclavicle rclavicle
    lowerneck upperneck
    upperneck head
    lclavicle lhumerus
    lhumerus lradius
    lradius lwrist
    lwrist lhand lthumb
    lhand lfingers
    rclavicle rhumerus
    rhumerus rradius
    rradius rwrist
    rwrist rhand rthumb
    rhand rfingers
  end

#!OML:ASF I:\Actors\actors\Patient Classification 2\Patient 1\Session 1\actor1.ASF
:FULLY-SPECIFIED
:DEGREES
1
root -0.579119 18.7277 4.72111 2.72637 -3.45771 -0.804078
lowerback -0.419238 0.919119 -1.21089
upperback -3.77766 1.20675 0.0244473
thorax -3.6739 0.6407 0.669191
lowerneck -9.91986 -3.03222 -3.36031
upperneck 27.4265 -4.78334 4.07368
head 10.5925 -2.0865 1.4577
rclavicle -6.99474e-015 -1.78906e-015
rhumerus -57.089 -13.7468 -78.0661
rradius 46.8455
rwrist 15.4876
rhand -1.78841 -41.4249
rfingers 7.12502
rthumb 23.8763 -69.9608
lclavicle -6.99474e-015 -1.78906e-015
lhumerus -47.0369 6.54341 84.8094
lradius 39.1299
lwrist -7.24079
lhand -2.57802 -26.1351
lfingers 7.12502
lthumb 23.1189 2.49778
rfemur 0 0 0
rtibia 0
rfoot 0 0
rtoes 0
lfemur -4.62045 -8.35679 -14.7858
ltibia 20.5389
lfoot -23.6572 13.8241
ltoes -54.2417
2
root -0.577925 18.7274 4.72264 2.71995 -3.47268 -0.778
lowerback -0.414984 0.928374 -1.20555
upperback -3.79075 1.21826 -0.00162425
thorax -3.68942 0.645927 0.638835
lowerneck -9.91475 -3.0315 -3.33992
upperneck 27.4501 -4.78565 4.06565
head 10.5997 -2.08629 1.45125
rclavicle -1.963e-015 -3.97569e-016
rhumerus -57.1267 -13.7705 -78.065
rradius 46.8447
rwrist 15.4771
rhand -1.76012 -41.4731
rfingers 7.12502
rthumb 23.9034 -70.0055
lclavicle -1.963e-015 -3.97569e-016
lhumerus -47.0538 6.49654 84.7889
lradius 39.0344
lwrist -7.0843
lhand -2.69739 -26.5543
lfingers 7.12502
lthumb 23.0044 2.09287
rfemur 0 0 0
rtibia 0
rfoot 0 0
rtoes 0
lfemur -4.60389 -8.4181 -14.8295
ltibia 20.5409
lfoot -23.7266 13.8516
ltoes -54.2155
3
root -0.578384 18.7276 4.72176 2.73553 -3.46197 -0.781273
lowerback -0.400645 0.926917 -1.19292
upperback -3.8151 1.21576 -0.0154142
thorax -3.72216 0.644286 0.617126
lowerneck -9.88099 -3.02875 -3.35021
upperneck 27.4563 -4.78831 4.09296
head 10.5964 -2.08593 1.46301
rclavicle 7.60351e-015 3.37934e-015
rhumerus -57.1617 -13.7897 -78.0673
rradius 46.8472
rwrist 15.4958
rhand -1.68943 -41.4827
rfingers 7.12502
rthumb 23.9712 -70.0061
lclavicle 7.60351e-015 3.37934e-015
lhumerus -47.0685 6.43469 84.7983
lradius 39.0481
lwrist -7.03472
lhand -2.68181 -26.5227
lfingers 7.12502
lthumb 23.0193 2.12263
rfemur 0 0 0
rtibia 0
rfoot 0 0
rtoes 0
lfemur -4.62857 -8.34582 -14.8114
ltibia 20.5369
lfoot -23.6977 13.7746
ltoes -54.1765
4
root -0.580044 18.7283 4.72024 2.76066 -3.43869 -0.793765
lowerback -0.394367 0.917508 -1.20437
upperback -3.84295 1.20264 -0.0183571
thorax -3.75457 0.638342 0.620474
lowerneck -9.83429 -3.02496 -3.32599
upperneck 27.4577 -4.79087 4.09833
head 10.5873 -2.08476 1.46114
rclavicle -8.34896e-015 9.93923e-016
rhumerus -57.1878 -13.7998 -78.072
rradius 46.8522
rwrist 15.5482
rhand -1.59343 -41.4844
rfingers 7.12502
rthumb 24.0633 -69.9957
lclavicle -8.34896e-015 9.93923e-016
lhumerus -47.0927 6.42416 84.7808
lradius 39.0591
lwrist -7.04775
lhand -2.62969 -26.5342
lfingers 7.12502
lthumb 23.0693 2.10487
rfemur 0 0 0
rtibia 0
rfoot 0 0
rtoes 0
lfemur -4.66487 -8.24591 -14.7711
ltibia 20.5296
lfoot -23.6364 13.6834
ltoes -54.1632
5
root -0.58024 18.7276 4.72081 2.74872 -3.43578 -0.79574
lowerback -0.39028 0.909571 -1.21228
upperback -3.84518 1.19186 -0.0174726
thorax -3.75916 0.633265 0.626032
lowerneck -9.82622 -3.0196 -3.3177
upperneck 27.4761 -4.78371 4.08958
head 10.5918 -2.08166 1.45767
rclavicle 9.93923e-015 7.95139e-016
rhumerus -57.1874 -13.7934 -78.072
rradius 46.8501
rwrist 15.5985
rhand -1.5325 -41.504
rfingers 7.12502
rthumb 24.1217 -70.0076
lclavicle 9.93923e-015 7.95139e-016
lhumerus -47.1073 6.45237 84.7567
lradius 39.0587
lwrist -7.07762
lhand -2.58805 -26.6361
lfingers 7.12502
lthumb 23.1093 1.99798
rfemur 0 0 0
rtibia 0
rfoot 0 0
rtoes 0
lfemur -4.64413 -8.27573 -14.7718
ltibia 20.5234
lfoot -23.6482 13.704
ltoes -54.1954
6
root -0.579017 18.727 4.72259 2.71176 -3.45186 -0.796421
lowerback -0.380915 0.907065 -1.19626
upperback -3.82521 1.18894 -0.012318
thorax -3.74341 0.631212 0.622517
lowerneck -9.85694 -3.0137 -3.34627
upperneck 27.4987 -4.77084 4.09416
head 10.6066 -2.07753 1.46548
rclavicle 5.46658e-016 -6.75868e-015
rhumerus -57.1554 -13.7824 -78.0551
rradius 46.8337
rwrist 15.6333
rhand -1.43181 -41.5148
rfingers 7.12502
rthumb 24.2183 -70.0055
lclavicle 5.46658e-016 -6.75868e-015
lhumerus -47.1037 6.48183 84.7582
lradius 39.067
lwrist -7.0863
lhand -2.59054 -26.7195
lfingers 7.12502
lthumb 23.1069 1.91491
rfemur 0 0 0
rtibia 0
rfoot 0 0
rtoes 0
lfemur -4.59055 -8.42021 -14.8018
ltibia 20.5244
lfoot -23.7257 13.8182
ltoes -54.1656
7
root -0.578768 18.7269 4.72321 2.69607 -3.46311 -0.806677
lowerback -0.376613 0.905009 -1.1816
upperback -3.81642 1.18668 -0.00501268
thorax -3.7365 0.629662 0.621917
lowerneck -9.86651 -3.00571 -3.34887
upperneck 27.4857 -4.75718 4.09116
head 10.603 -2.07185 1.46632
rclavicle -8.17502e-015 3.37934e-015
rhumerus -57.1413 -13.765 -78.0469
rradius 46.8437
rwrist 15.6239
rhand -1.32719 -41.5055
rfingers 7.12502
rthumb 24.3186 -69.9829
lclavicle -8.17502e-015 3.37934e-015
lhumerus -47.1028 6.48176 84.7706
lradius 39.073
lwrist -7.08893
lhand -2.62576 -26.7594
lfingers 7.12502
lthumb 23.0731 1.87926
rfemur 0 0 0
rtibia 0
rfoot 0 0
rtoes 0
lfemur -4.56727 -8.50796 -14.8058
ltibia 20.5309
lfoot -23.7756 13.8691
ltoes -54.0888
8
root -0.579561 18.7265 4.72344 2.69254 -3.46325 -0.83331
lowerback -0.379459 0.901683 -1.16655
upperback -3.81572 1.18286 0.00532783
thorax -3.73397 0.627444 0.624309
lowerneck -9.86857 -3.00272 -3.31334
upperneck 27.47 -4.75012 4.0569
head 10.5953 -2.06903 1.44868
rclavicle 4.24902e-015 -6.55989e-015
rhumerus -57.1457 -13.7482 -78.0601
rradius 46.8725
rwrist 15.5681
rhand -1.36644 -41.4671
rfingers 7.12502
rthumb 24.2809 -69.9495
lclavicle 4.24902e-015 -6.55989e-015
lhumerus -47.1097 6.48075 84.7666
lradius 39.0694
lwrist -7.11108
lhand -2.66389 -26.8011
lfingers 7.12502
lthumb 23.0365 1.84211
rfemur 0 0 0
rtibia 0
rfoot 0 0
rtoes 0
lfemur -4.56362 -8.4785 -14.7697
ltibia 20.5362
lfoot -23.7656 13.8267
ltoes -54.1182
